<svg width="12" height="24" viewBox="0 0 12 24" fill="none" xmlns="http://www.w3.org/2000/svg">
<path d="M5.73636 0H4.86804C2.34487 0 0.206855 1.95432 0 4.45201C0 4.45201 -1.88336e-07 6.83547 0.00463089 7.65209L2.34719 5.8614C2.34719 5.19221 2.35799 4.59171 2.37343 4.50681C2.45888 3.91119 2.76122 3.36807 3.22246 2.98164C3.99431 2.30396 5.56193 2.16966 6.65563 2.56793L8.69794 1.0034C7.84919 0.352794 6.80964 0.000127929 5.74022 0" fill="#092705"/>
<path d="M8.89982 22.1582L7.50586 21.093C7.06373 21.4249 6.5234 21.5996 5.97066 21.5893H5.09925C4.49566 21.6011 3.90846 21.3925 3.44749 21.0027C2.9888 20.6345 2.68746 20.1054 2.60464 19.5231C2.5784 19.3841 2.57068 18.2642 2.5784 17.3179L1.40519 16.421L0.269804 15.5558C0.23828 15.7557 0.222024 15.9577 0.221177 16.1601V18.1075C0.221177 19.3533 0.0397931 20.6075 0.976043 21.9073C1.82121 23.1508 3.30239 23.9998 5.0375 23.9998H5.90583C6.55887 24.0052 7.20647 23.8808 7.81097 23.6337C8.41547 23.3865 8.96479 23.0217 9.42699 22.5603L8.89982 22.1582Z" fill="#092705"/>
<path d="M10.85 17.6883C10.85 18.8075 10.8655 19.7098 10.6015 20.5889L9.58267 19.8109L8.48664 18.9704C8.50208 18.0009 8.48665 16.1146 8.46349 15.9741C8.37554 15.3966 8.0739 14.8732 7.61832 14.5076C7.13205 14.0993 6.33088 13.8947 5.53433 13.8978C4.73779 13.9009 3.93661 14.0993 3.45035 14.5076C3.32505 14.6118 3.21003 14.7279 3.10688 14.8541L2.93861 14.7245L1.26294 13.4424C1.72769 12.8776 2.31253 12.4236 2.97489 12.1133C3.02973 12.0865 3.08589 12.0626 3.14315 12.0415C2.99573 11.9844 2.85603 11.9227 2.71632 11.8555C1.87692 11.4453 1.17329 10.8023 0.689453 10.0031L2.58742 8.54968C2.79004 8.98217 3.11265 9.34734 3.51687 9.60172C3.92108 9.8561 4.38988 9.98898 4.86746 9.98455H5.73579C6.0248 9.98572 6.31191 9.93769 6.58482 9.84253L5.47259 8.73107L7.15289 7.04999L8.18717 8.08426C8.20801 8.00708 8.22345 7.9214 8.23657 7.83881C8.28056 7.58565 8.26976 4.7028 8.23657 4.50907C8.22427 4.428 8.20779 4.34762 8.18717 4.26825L10.1423 2.76855C10.3992 3.29629 10.5562 3.86704 10.6054 4.45195L10.6154 7.82569C10.5691 7.97003 10.6023 8.82909 9.98171 9.88035L11.1634 11.0651L9.48078 12.7454L8.34077 11.6C8.18444 11.6996 8.02204 11.7893 7.8545 11.8686C7.79739 11.8972 7.74027 11.9234 7.68084 11.9458C7.82826 11.9998 7.97337 12.0593 8.11307 12.1264C9.59193 12.8211 10.7011 14.2235 10.8377 15.9918C10.8817 16.5553 10.8485 17.1241 10.8485 17.6899" fill="#092705"/>
</svg>
